<?xml version="1.0" encoding="utf-8"?>
<!-- Generator: Adobe Illustrator 27.3.1, SVG Export Plug-In . SVG Version: 6.00 Build 0)  -->
<svg version="1.1" id="Laag_1" xmlns="http://www.w3.org/2000/svg" xmlns:xlink="http://www.w3.org/1999/xlink" x="0px" y="0px"
	 viewBox="0 0 1000 1000" style="enable-background:new 0 0 1000 1000;" xml:space="preserve">
<style type="text/css">
	.st0{fill:#FFFFFF;}
</style>
<g>
	<g>
		<g>
			<path class="st0" d="M354.4,467.3V593h-25.3v-12.1h-0.5c-2.6,4-5.9,7.3-9.6,9.8c-3.7,2.6-8.4,3.8-14.2,3.8
				c-3.1,0-6.3-0.5-9.4-1.6s-6-2.9-8.4-5.4c-2.5-2.5-4.5-5.6-6-9.5c-1.5-3.9-2.2-8.7-2.2-14.3v-118c0-4.6-1.1-8.3-3.2-10.9
				c-2.1-2.6-5.2-4-9.2-4c-4.8,0-8.1,1.5-9.9,4.5c-1.8,3-2.7,7.3-2.7,12.9v84.5h-25.3V407h25.3v12.1h0.5c2.6-4,5.8-7.2,9.5-9.8
				c3.7-2.6,8.5-3.9,14.3-3.9c3.1,0,6.3,0.6,9.4,1.6s6,2.8,8.4,5.3c2.5,2.5,4.5,5.7,6,9.6c1.5,3.9,2.2,8.6,2.2,14.2v118.1
				c0,4.6,1.1,8.3,3.2,10.9s5.2,4,9.2,4c4.8,0,8.1-1.5,9.9-4.5c1.8-3,2.7-7.3,2.7-12.9v-84.5L354.4,467.3L354.4,467.3z"/>
		</g>
	</g>
	<path class="st0" d="M413.9,593v-12.9h-0.5c-3.3,4.6-6.7,8.2-10,10.7c-3.4,2.5-8.1,3.7-14.2,3.7c-3,0-6-0.5-9-1.4
		c-3.1-0.9-6-2.6-8.8-5.1c-2.8-2.3-5.1-5.7-6.8-10c-1.7-4.4-2.6-10-2.6-17c0-7.1,0.6-13.3,1.7-18.7c1.1-5.4,3.3-9.9,6.5-13.5
		c3-3.5,7-6.1,12.1-7.8c5.1-1.7,11.6-2.6,19.6-2.6c0.8,0,1.7,0,2.7,0c1,0,1.9,0.1,2.7,0.2c0.8,0.2,1.8,0.2,3,0.2s2.4,0.1,3.7,0.2
		V506c0-4.3-0.9-7.9-2.7-10.7c-1.8-2.8-5.1-4.2-9.9-4.2c-3.3,0-6.3,1.1-9,3.2c-2.7,2.1-4.5,5.3-5.3,9.4h-24.5
		c0.7-11.2,4.5-20.3,11.4-27.3c3.3-3.3,7.3-5.9,11.9-7.8c4.6-1.9,9.8-2.9,15.6-2.9c5.3,0,10.2,0.8,14.9,2.5
		c4.6,1.6,8.7,4.1,12.1,7.4c3.3,3.3,6,7.4,7.9,12.4c2,5,3,10.7,3,17.4V593L413.9,593L413.9,593z M413.9,539
		c-2.8-0.5-5.1-0.7-6.9-0.7c-5.5,0-10.1,1.3-14,3.8c-3.9,2.6-5.8,7.2-5.8,14c0,4.8,1.1,8.7,3.5,11.7c2.3,3,5.5,4.5,9.7,4.5
		c4.3,0,7.6-1.4,10-4.2c2.4-2.8,3.6-6.8,3.6-11.9V539z"/>
	<path class="st0" d="M448.4,593V467.3h25.3v12.1h0.5c2.6-4,5.8-7.2,9.5-9.8c3.7-2.6,8.5-3.8,14.2-3.8c3.1,0,6.3,0.5,9.4,1.6
		c3.1,1.1,5.9,2.9,8.4,5.3c2.5,2.5,4.5,5.7,6,9.5c1.5,3.9,2.2,8.6,2.2,14.2V593h-25.3v-87c0-4.6-1.1-8.3-3.2-10.9
		c-2.1-2.6-5.2-4-9.2-4c-4.8,0-8.1,1.5-9.9,4.5c-1.8,3-2.7,7.3-2.7,12.9V593L448.4,593L448.4,593z"/>
	<path class="st0" d="M558.5,556.8c0,4,1.1,7,3.3,9.2c2.2,2.2,5.2,3.2,9,3.2c4.8,0,8-1.4,9.5-4.2c1.6-2.8,2.5-5.6,2.8-8.4h25.3
		c0,11.1-3.4,20-10.2,26.8c-3.3,3.5-7.3,6.2-11.9,8.2s-9.8,3-15.6,3c-7.9,0-14.7-1.7-20.2-5c-5.5-3.3-9.8-7.7-12.8-13.1
		c-1.8-3.3-3.1-7.1-3.7-11.4c-0.7-4.3-1-9-1-14.1v-41.4c0-5.1,0.3-9.8,1-14.1c0.7-4.3,1.9-8.1,3.7-11.4c3-5.5,7.2-9.8,12.8-13.1
		c5.5-3.3,12.3-5,20.2-5c5.8,0,11,1,15.7,3c4.7,2,8.7,4.7,12,8.2c6.6,7.4,9.9,17.1,9.9,29h-25.3c0-5.1-1.1-8.9-3.3-11.3
		c-2.2-2.4-5.2-3.6-9-3.6s-6.8,1.2-9,3.6c-2.2,2.4-3.3,6-3.3,10.8L558.5,556.8L558.5,556.8z"/>
	<path class="st0" d="M689.8,539.7h-50.1v17.1c0,4,1.1,7,3.3,9.2c2.2,2.2,5.2,3.2,9,3.2c4.8,0,8-1.4,9.5-4.2
		c1.6-2.8,2.5-5.6,2.8-8.4h25.3c0,11.1-3.4,20-10.2,26.8c-3.3,3.5-7.3,6.2-11.9,8.2c-4.6,2-9.8,3-15.6,3c-7.9,0-14.7-1.7-20.2-5
		c-5.5-3.3-9.8-7.7-12.8-13.1c-1.8-3.3-3.1-7.1-3.7-11.4c-0.7-4.3-1-9-1-14.1v-41.4c0-5.1,0.3-9.8,1-14.1c0.7-4.3,1.9-8.1,3.7-11.4
		c3-5.5,7.2-9.8,12.8-13.1c5.5-3.3,12.3-5,20.2-5c5.8,0,11,1,15.7,3c4.7,2,8.7,4.7,12,8.2c6.6,7.4,9.9,16.8,9.9,28L689.8,539.7
		L689.8,539.7z M636.1,450.7l22.3-34.9h26.8l-32.7,34.9H636.1z M639.8,519.9h24.8v-14.4c0-4.8-1.1-8.4-3.3-10.8
		c-2.2-2.4-5.2-3.6-9-3.6s-6.8,1.2-9,3.6c-2.2,2.4-3.3,6-3.3,10.8L639.8,519.9L639.8,519.9z"/>
	<path class="st0" d="M771.5,539h-50.1V556c0,4,1.1,7,3.3,9.2c2.2,2.2,5.2,3.2,9,3.2c4.8,0,8-1.4,9.5-4.2c1.6-2.8,2.5-5.6,2.8-8.4
		h25.3c0,11.1-3.4,20-10.2,26.8c-3.3,3.5-7.3,6.2-11.9,8.2s-9.8,3-15.6,3c-7.9,0-14.7-1.7-20.2-5c-5.5-3.3-9.8-7.7-12.8-13.1
		c-1.8-3.3-3.1-7.1-3.7-11.4c-0.7-4.3-1-9-1-14.1v-41.4c0-5.1,0.3-9.8,1-14.1c0.7-4.3,1.9-8.1,3.7-11.4c3-5.5,7.2-9.8,12.8-13.1
		c5.5-3.3,12.3-5,20.2-5c5.8,0,11,1,15.7,3c4.7,2,8.7,4.7,12,8.2c6.6,7.4,9.9,16.8,9.9,28L771.5,539L771.5,539z M721.4,519.1h24.8
		v-14.4c0-4.8-1.1-8.4-3.3-10.8c-2.2-2.4-5.2-3.6-9-3.6s-6.8,1.2-9,3.6c-2.2,2.4-3.3,6-3.3,10.8L721.4,519.1L721.4,519.1z"/>
</g>
</svg>
