<?xml version="1.0" encoding="utf-8"?>
<!-- Generator: Adobe Illustrator 27.3.1, SVG Export Plug-In . SVG Version: 6.00 Build 0)  -->
<svg version="1.1" id="Laag_1" xmlns="http://www.w3.org/2000/svg" xmlns:xlink="http://www.w3.org/1999/xlink" x="0px" y="0px"
	 viewBox="0 0 1000 1000" style="enable-background:new 0 0 1000 1000;" xml:space="preserve">
<style type="text/css">
	.st0{fill:#1D1D1B;}
</style>
<g>
	<g>
		<g>
			<path class="st0" d="M354.42,467.33v125.65h-25.28v-12.14h-0.5c-2.64,3.97-5.87,7.27-9.58,9.83c-3.72,2.56-8.43,3.8-14.21,3.8
				c-3.14,0-6.28-0.5-9.42-1.57s-5.95-2.89-8.43-5.37c-2.48-2.48-4.46-5.62-5.95-9.5c-1.49-3.88-2.23-8.67-2.23-14.29V445.69
				c0-4.63-1.07-8.26-3.22-10.9c-2.15-2.64-5.2-3.97-9.17-3.97c-4.79,0-8.1,1.49-9.91,4.46c-1.82,2.97-2.73,7.27-2.73,12.89v84.51
				h-25.28V407.03h25.28v12.14h0.5c2.64-3.97,5.78-7.19,9.5-9.75c3.72-2.56,8.51-3.88,14.29-3.88c3.14,0,6.28,0.58,9.42,1.65
				c3.14,1.07,5.95,2.81,8.43,5.29c2.48,2.48,4.46,5.7,5.95,9.58c1.49,3.88,2.23,8.59,2.23,14.21v118.05c0,4.63,1.07,8.26,3.22,10.9
				c2.15,2.64,5.2,3.97,9.17,3.97c4.79,0,8.1-1.49,9.91-4.46c1.82-2.97,2.73-7.27,2.73-12.89v-84.51H354.42z"/>
		</g>
	</g>
	<path class="st0" d="M413.89,592.97v-12.89h-0.49c-3.31,4.63-6.66,8.18-10.04,10.66c-3.39,2.48-8.14,3.72-14.25,3.72
		c-2.97,0-5.99-0.46-9.04-1.36c-3.06-0.91-5.99-2.6-8.8-5.08c-2.81-2.31-5.08-5.66-6.82-10.04c-1.73-4.38-2.6-10.04-2.6-16.98
		c0-7.1,0.58-13.34,1.73-18.71c1.15-5.37,3.3-9.87,6.45-13.51c2.97-3.47,7.02-6.07,12.14-7.8c5.12-1.73,11.65-2.6,19.58-2.6
		c0.82,0,1.73,0,2.73,0c0.99,0,1.9,0.08,2.73,0.25c0.82,0.17,1.82,0.25,2.97,0.25c1.15,0,2.39,0.09,3.71,0.25v-13.13
		c0-4.3-0.91-7.85-2.72-10.66c-1.82-2.81-5.13-4.22-9.91-4.22c-3.31,0-6.32,1.08-9.05,3.22c-2.72,2.15-4.5,5.29-5.33,9.42h-24.53
		c0.66-11.23,4.46-20.32,11.4-27.26c3.3-3.3,7.27-5.91,11.89-7.8c4.62-1.9,9.83-2.85,15.61-2.85c5.28,0,10.24,0.83,14.87,2.48
		c4.63,1.65,8.68,4.13,12.15,7.43c3.3,3.31,5.95,7.43,7.93,12.39c1.98,4.96,2.97,10.74,2.97,17.35v87.48H413.89z M413.89,538.95
		c-2.81-0.5-5.12-0.74-6.94-0.74c-5.45,0-10.12,1.28-14,3.84c-3.88,2.57-5.82,7.23-5.82,14c0,4.8,1.15,8.68,3.47,11.65
		c2.31,2.97,5.53,4.46,9.66,4.46c4.3,0,7.64-1.4,10.04-4.21c2.39-2.81,3.59-6.77,3.59-11.9V538.95z"/>
	<path class="st0" d="M448.39,592.97V467.33h25.28v12.14h0.5c2.64-3.97,5.82-7.22,9.54-9.79c3.71-2.56,8.46-3.84,14.25-3.84
		c3.14,0,6.28,0.54,9.42,1.61c3.14,1.08,5.95,2.85,8.43,5.33c2.48,2.48,4.46,5.66,5.95,9.54c1.48,3.88,2.23,8.64,2.23,14.25v96.4
		H498.7v-86.98c0-4.63-1.08-8.26-3.22-10.91c-2.15-2.64-5.2-3.96-9.17-3.96c-4.8,0-8.1,1.49-9.91,4.46
		c-1.82,2.97-2.73,7.27-2.73,12.89v84.51H448.39z"/>
	<path class="st0" d="M558.48,556.79c0,3.97,1.11,7.02,3.34,9.17c2.23,2.15,5.24,3.22,9.05,3.22c4.79,0,7.97-1.4,9.54-4.22
		c1.57-2.81,2.52-5.61,2.85-8.43h25.28c0,11.07-3.39,19.99-10.16,26.77c-3.31,3.47-7.27,6.2-11.9,8.18
		c-4.63,1.98-9.83,2.98-15.61,2.98c-7.93,0-14.67-1.65-20.2-4.96c-5.54-3.3-9.79-7.68-12.77-13.13c-1.82-3.3-3.06-7.1-3.71-11.4
		c-0.66-4.29-0.99-9-0.99-14.13v-41.38c0-5.12,0.33-9.83,0.99-14.13c0.66-4.3,1.9-8.1,3.71-11.4c2.98-5.45,7.23-9.83,12.77-13.13
		c5.53-3.3,12.27-4.96,20.2-4.96c5.78,0,11.03,0.99,15.73,2.98c4.71,1.98,8.71,4.71,12.02,8.18c6.61,7.43,9.91,17.1,9.91,29h-25.28
		c0-5.12-1.11-8.88-3.34-11.28c-2.23-2.39-5.25-3.59-9.05-3.59c-3.8,0-6.82,1.2-9.05,3.59c-2.23,2.4-3.34,5.99-3.34,10.78V556.79z"
		/>
	<path class="st0" d="M689.84,539.69h-50.06v17.1c0,3.97,1.12,7.02,3.35,9.17c2.23,2.15,5.24,3.22,9.04,3.22
		c4.79,0,7.97-1.4,9.54-4.22c1.57-2.81,2.52-5.61,2.85-8.43h25.28c0,11.07-3.39,19.99-10.16,26.77c-3.31,3.47-7.27,6.2-11.89,8.18
		c-4.63,1.98-9.83,2.98-15.61,2.98c-7.93,0-14.66-1.65-20.2-4.96c-5.54-3.3-9.79-7.68-12.76-13.13c-1.82-3.3-3.06-7.1-3.72-11.4
		c-0.66-4.29-0.99-9-0.99-14.13v-41.38c0-5.12,0.33-9.83,0.99-14.13c0.66-4.3,1.9-8.1,3.72-11.4c2.97-5.45,7.22-9.83,12.76-13.13
		c5.53-3.3,12.27-4.96,20.2-4.96c5.78,0,11.03,0.99,15.74,2.98c4.71,1.98,8.71,4.71,12.02,8.18c6.6,7.43,9.91,16.77,9.91,28.01
		V539.69z M636.07,450.72l22.3-34.94h26.77l-32.71,34.94H636.07z M639.78,519.86h24.78v-14.37c0-4.79-1.11-8.39-3.34-10.78
		c-2.23-2.39-5.25-3.59-9.05-3.59s-6.81,1.2-9.04,3.59c-2.23,2.4-3.35,5.99-3.35,10.78V519.86z"/>
	<path class="st0" d="M771.47,538.95h-50.06v17.1c0,3.97,1.12,7.02,3.35,9.17c2.23,2.15,5.24,3.22,9.04,3.22
		c4.79,0,7.97-1.4,9.54-4.22c1.57-2.81,2.52-5.61,2.85-8.43h25.28c0,11.07-3.39,19.99-10.16,26.77c-3.31,3.47-7.27,6.2-11.9,8.18
		c-4.63,1.98-9.83,2.98-15.61,2.98c-7.93,0-14.66-1.65-20.2-4.96c-5.54-3.3-9.79-7.68-12.76-13.13c-1.82-3.3-3.06-7.1-3.72-11.4
		c-0.66-4.29-0.99-9-0.99-14.13v-41.38c0-5.12,0.33-9.83,0.99-14.13c0.66-4.3,1.9-8.1,3.72-11.4c2.97-5.45,7.22-9.83,12.76-13.13
		c5.53-3.3,12.27-4.96,20.2-4.96c5.78,0,11.03,0.99,15.74,2.98c4.71,1.98,8.71,4.71,12.02,8.18c6.6,7.43,9.91,16.77,9.91,28.01
		V538.95z M721.41,519.12h24.78v-14.37c0-4.79-1.11-8.39-3.34-10.78c-2.23-2.39-5.25-3.59-9.05-3.59s-6.81,1.2-9.04,3.59
		c-2.23,2.4-3.35,5.99-3.35,10.78V519.12z"/>
</g>
</svg>
